<svg id="svg" xmlns="http://www.w3.org/2000/svg" xmlns:xlink="http://www.w3.org/1999/xlink" width="400" height="400" viewBox="0, 0, 400,400"><g id="svgg"><path id="path0" d="M206.481 55.350 C 188.460 60.048,156.043 81.324,135.365 102.024 C 122.919 114.483,119.520 120.685,120.353 129.412 C 121.626 142.736,122.777 146.310,127.375 151.200 C 132.906 157.083,136.148 157.015,137.000 150.998 C 138.433 140.886,180.329 102.627,193.399 99.496 C 197.460 98.524,196.905 101.218,179.928 164.925 L 172.446 192.999 153.168 208.056 C 61.404 279.726,29.519 306.150,23.209 315.757 C 21.845 317.833,20.619 322.879,20.816 325.606 C 21.007 328.246,21.906 329.483,26.166 332.963 C 27.787 334.287,30.630 336.733,32.485 338.398 C 37.731 343.108,39.411 343.866,44.390 343.774 C 46.281 343.739,49.981 340.710,130.189 273.518 C 145.266 260.889,157.867 250.346,158.193 250.090 C 158.682 249.706,158.598 250.452,157.714 254.349 C 147.845 297.882,146.540 318.062,152.766 330.926 C 162.482 351.002,190.263 351.270,220.370 331.577 C 238.346 319.819,263.368 296.146,270.634 284.022 C 273.996 278.413,274.105 268.185,270.902 258.766 C 269.797 255.516,269.627 254.537,269.609 251.309 C 269.585 247.033,269.098 245.245,267.752 244.493 C 265.800 243.400,265.515 243.617,255.741 253.665 C 237.756 272.154,191.541 310.370,187.168 310.370 C 184.540 310.370,185.844 294.798,190.363 272.222 C 194.137 253.370,203.893 212.956,204.900 212.004 C 205.459 211.475,231.860 190.992,255.741 172.559 C 298.829 139.301,325.034 119.608,355.741 97.408 C 378.563 80.909,381.455 77.938,379.110 73.403 C 376.560 68.471,353.585 64.385,341.852 66.776 C 334.273 68.321,334.285 68.312,242.076 139.018 C 229.671 148.530,219.475 156.265,219.417 156.207 C 219.359 156.149,220.222 152.687,221.334 148.514 C 234.068 100.737,237.116 83.592,234.830 72.593 C 231.946 58.718,220.430 51.713,206.481 55.350 " stroke="none" fill="#000000" fill-rule="evenodd"></path></g></svg>